<svg width="82" height="22" fill="none" xmlns="http://www.w3.org/2000/svg"><g clip-path="url(#a)"><path d="M0 10.715C0 4.797 4.797 0 10.715 0h59.793c5.918 0 10.716 4.797 10.716 10.715v1.148c0 5.918-4.798 10.715-10.716 10.715H10.715C4.797 22.578 0 17.781 0 11.863v-1.148Z" fill="#0A0A0A"/><path d="M81.207 11.289c0 6.235-5.054 11.29-11.29 11.29-6.234 0-11.288-5.055-11.288-11.29C58.629 5.054 63.683 0 69.918 0c6.235 0 11.289 5.054 11.289 11.289Z" fill="#0A0A0A"/><g opacity=".7"><path d="M75.994 11.456c0 3.41-2.712 6.173-6.058 6.173-3.345 0-6.057-2.764-6.057-6.173 0-3.41 2.712-6.173 6.057-6.173 3.346 0 6.058 2.764 6.058 6.173Z" fill="url(#b)"/><path d="M75.994 11.456c0 3.41-2.712 6.173-6.058 6.173-3.345 0-6.057-2.764-6.057-6.173 0-3.41 2.712-6.173 6.057-6.173 3.346 0 6.058 2.764 6.058 6.173Z" fill="url(#c)"/><path d="M75.994 11.456c0 3.41-2.712 6.173-6.058 6.173-3.345 0-6.057-2.764-6.057-6.173 0-3.41 2.712-6.173 6.057-6.173 3.346 0 6.058 2.764 6.058 6.173Z" fill="url(#d)"/></g><path opacity=".7" fill-rule="evenodd" clip-rule="evenodd" d="M76.398 11.456c0 3.625-2.885 6.576-6.461 6.576-3.576 0-6.461-2.951-6.461-6.576 0-3.625 2.885-6.577 6.46-6.577 3.577 0 6.462 2.952 6.462 6.577Zm-6.461 6.173c3.345 0 6.057-2.764 6.057-6.173 0-3.41-2.712-6.173-6.057-6.173-3.346 0-6.058 2.764-6.058 6.173 0 3.41 2.712 6.173 6.058 6.173Z" fill="#080F21"/><path opacity=".7" fill-rule="evenodd" clip-rule="evenodd" d="M69.432 17.629V5.283h1.01V17.63h-1.01Z" fill="#000"/></g><defs><radialGradient id="b" cx="0" cy="0" r="1" gradientUnits="userSpaceOnUse" gradientTransform="matrix(0 6.17273 -6.05752 0 69.936 11.456)"><stop offset=".214"/><stop offset=".271" stop-color="#081A32"/><stop offset=".396" stop-color="#1F3A58"/><stop offset=".516" stop-color="#375F90"/><stop offset=".714" stop-color="#274871"/><stop offset=".917" stop-color="#0D1528"/></radialGradient><radialGradient id="c" cx="0" cy="0" r="1" gradientUnits="userSpaceOnUse" gradientTransform="matrix(0 6.17273 -6.05752 0 69.936 11.456)"><stop offset=".411" stop-opacity="0"/><stop offset=".51"/><stop offset=".818" stop-opacity="0"/></radialGradient><radialGradient id="d" cx="0" cy="0" r="1" gradientUnits="userSpaceOnUse" gradientTransform="matrix(0 6.17273 -6.05752 0 69.936 11.456)"><stop/><stop offset=".167" stop-opacity="0"/><stop offset=".885" stop-opacity="0"/></radialGradient><clipPath id="a"><path fill="#fff" d="M0 0h82v22H0z"/></clipPath></defs></svg>