<svg width="96" height="96" viewBox="0 0 96 96" fill="none" xmlns="http://www.w3.org/2000/svg">
<g clip-path="url(#clip0_5_781)">
<mask id="mask0_5_781" style="mask-type:luminance" maskUnits="userSpaceOnUse" x="0" y="0" width="96" height="96">
<path d="M96 0H0V96H96V0Z" fill="white"/>
</mask>
<g mask="url(#mask0_5_781)">
<path d="M47.9999 90.8049C71.6404 90.8049 90.8048 71.6405 90.8048 48C90.8048 24.3596 71.6404 5.19519 47.9999 5.19519C24.3595 5.19519 5.19507 24.3596 5.19507 48C5.19507 71.6405 24.3595 90.8049 47.9999 90.8049Z" fill="white"/>
<g filter="url(#filter0_di_5_781)">
<path d="M48 0C38.5065 0 29.2262 2.81515 21.3326 8.08946C13.4391 13.3638 7.28681 20.8603 3.65381 29.6312C0.0207973 38.4021 -0.929762 48.0532 0.922328 57.3643C2.77442 66.6754 7.34598 75.2282 14.0589 81.9411C20.7718 88.654 29.3246 93.2256 38.6357 95.0777C47.9467 96.9298 57.5979 95.9792 66.3688 92.3462C75.1397 88.7132 82.6362 82.5609 87.9105 74.6674C93.1848 66.7738 96 57.4935 96 48C96.0183 41.7149 94.7985 35.4876 92.4103 29.6739C90.022 23.8602 86.512 18.5738 82.0806 14.1166C77.6493 9.65937 72.3835 6.11861 66.5838 3.69648C60.7841 1.27436 54.5641 0.0182884 48.2789 0H48ZM48.8136 49.6271L43.816 66.4794H70.5472C70.7243 66.4732 70.9008 66.502 71.0668 66.564C71.2327 66.6261 71.3848 66.7203 71.5144 66.8412C71.6439 66.9621 71.7483 67.1073 71.8217 67.2686C71.895 67.4299 71.9359 67.604 71.9419 67.7811V68.2228L69.6174 76.2421C69.5149 76.6214 69.2865 76.9545 68.9698 77.1868C68.653 77.4191 68.2666 77.5368 67.8741 77.5206H26.9637L33.8208 54.1598L26.1501 56.4843L27.8935 51.138L35.5642 48.8136L45.2107 16.0387C45.3168 15.6616 45.5462 15.3309 45.8621 15.0992C46.178 14.8675 46.5624 14.7482 46.954 14.7603H57.2978C57.4749 14.7541 57.6514 14.7828 57.8174 14.8449C57.9834 14.907 58.1354 15.0012 58.265 15.122C58.3945 15.2429 58.4989 15.3882 58.5723 15.5495C58.6456 15.7107 58.6865 15.8849 58.6925 16.062V16.5036L50.5569 44.1646L58.2276 41.8402L56.6005 47.4189L48.8136 49.6271Z" fill="url(#paint0_linear_5_781)"/>
</g>
</g>
</g>
<defs>
<filter id="filter0_di_5_781" x="-3" y="-1" width="102" height="102" filterUnits="userSpaceOnUse" color-interpolation-filters="sRGB">
<feFlood flood-opacity="0" result="BackgroundImageFix"/>
<feColorMatrix in="SourceAlpha" type="matrix" values="0 0 0 0 0 0 0 0 0 0 0 0 0 0 0 0 0 0 127 0" result="hardAlpha"/>
<feOffset dy="2"/>
<feGaussianBlur stdDeviation="1.5"/>
<feComposite in2="hardAlpha" operator="out"/>
<feColorMatrix type="matrix" values="0 0 0 0 0 0 0 0 0 0 0 0 0 0 0 0 0 0 0.02 0"/>
<feBlend mode="normal" in2="BackgroundImageFix" result="effect1_dropShadow_5_781"/>
<feBlend mode="normal" in="SourceGraphic" in2="effect1_dropShadow_5_781" result="shape"/>
<feColorMatrix in="SourceAlpha" type="matrix" values="0 0 0 0 0 0 0 0 0 0 0 0 0 0 0 0 0 0 127 0" result="hardAlpha"/>
<feOffset/>
<feGaussianBlur stdDeviation="4"/>
<feComposite in2="hardAlpha" operator="arithmetic" k2="-1" k3="1"/>
<feColorMatrix type="matrix" values="0 0 0 0 0.715625 0 0 0 0 0.728516 0 0 0 0 0.75 0 0 0 0.04 0"/>
<feBlend mode="normal" in2="shape" result="effect2_innerShadow_5_781"/>
</filter>
<linearGradient id="paint0_linear_5_781" x1="16" y1="-2.5" x2="75.5" y2="102" gradientUnits="userSpaceOnUse">
<stop stop-color="#3F68A8"/>
<stop offset="1" stop-color="#2C5493"/>
</linearGradient>
<clipPath id="clip0_5_781">
<rect width="96" height="96" fill="white"/>
</clipPath>
</defs>
</svg>
