<svg width="96" height="96" viewBox="0 0 96 96" fill="none" xmlns="http://www.w3.org/2000/svg">
<g clip-path="url(#clip0_5_781)">
<path d="M96 48C96 21.4903 74.5097 0 48 0C21.4903 0 0 21.4903 0 48C0 74.5097 21.4903 96 48 96C74.5097 96 96 74.5097 96 48Z" fill="url(#paint0_linear_5_781)"/>
<path d="M71.5022 22.6909H25.3081V33.8431H42.8291V50.2347H53.9812V33.8431H71.5022V22.6909Z" fill="white"/>
<path d="M48.5113 51.9809C34.0174 51.9809 22.2667 49.6869 22.2667 46.8569C22.2667 44.0274 34.0169 41.7332 48.5113 41.7332C63.0052 41.7332 74.7554 44.0274 74.7554 46.8569C74.7554 49.6869 63.0052 51.9809 48.5113 51.9809ZM77.9796 47.7112C77.9796 44.0622 64.7863 41.1042 48.5113 41.1042C32.2368 41.1042 19.0425 44.0622 19.0425 47.7112C19.0425 50.9247 29.2731 53.6019 42.8298 54.1951V77.7258H53.981V54.2044C67.6421 53.6297 77.9796 50.9413 77.9796 47.7112Z" fill="white"/>
</g>
<defs>
<linearGradient id="paint0_linear_5_781" x1="9.16364" y1="131.782" x2="56.7273" y2="30.5454" gradientUnits="userSpaceOnUse">
<stop stop-color="#8DDAD5"/>
<stop offset="1" stop-color="#1BA27A"/>
</linearGradient>
<clipPath id="clip0_5_781">
<rect width="96" height="96" fill="white"/>
</clipPath>
</defs>
</svg>
