<svg width="96" height="96" viewBox="0 0 96 96" fill="none" xmlns="http://www.w3.org/2000/svg">
<g clip-path="url(#clip0_5_781)">
<path d="M96 48C96 21.4903 74.5097 0 48 0C21.4903 0 0 21.4903 0 48C0 74.5097 21.4903 96 48 96C74.5097 96 96 74.5097 96 48Z" fill="url(#paint0_linear_5_781)"/>
<path d="M64.3888 26.7903H31.6087C25.5816 26.7903 21.7617 33.2917 24.7938 38.5475L45.0244 73.6129C46.3445 75.9025 49.6529 75.9025 50.9731 73.6129L71.2079 38.5475C74.236 33.3001 70.4159 26.7903 64.3929 26.7903H64.3888ZM45.0079 63.0973L40.602 54.5703L29.9711 35.5566C29.2698 34.3397 30.136 32.7802 31.6046 32.7802H45.0038V63.1014L45.0079 63.0973ZM66.0182 35.5525L55.3913 54.5744L50.9855 63.0973V32.7761H64.3847C65.8533 32.7761 66.7195 34.3355 66.0182 35.5525Z" fill="white"/>
</g>
<defs>
<linearGradient id="paint0_linear_5_781" x1="89.4545" y1="-7.41818" x2="13.9636" y2="117.382" gradientUnits="userSpaceOnUse">
<stop stop-color="#04BEFE"/>
<stop offset="1" stop-color="#4481EB"/>
</linearGradient>
<clipPath id="clip0_5_781">
<rect width="96" height="96" fill="white"/>
</clipPath>
</defs>
</svg>
