<?xml version="1.0" encoding="utf-8"?><svg viewBox="0 0 32 32" xmlns="http://www.w3.org/2000/svg" xmlns:xlink="http://www.w3.org/1999/xlink"><style>:root>svg{display:none}:root>svg:target{display:block}</style><svg viewBox="0 0 22 20" id="arrow-exchange" xmlns="http://www.w3.org/2000/svg"><path fill-rule="evenodd" clip-rule="evenodd" d="M15.344.384a1 1 0 011.414 0l4.454 4.455v1.414l-4.454 4.454a1 1 0 01-1.414-1.414l2.747-2.747H1.495a1 1 0 010-2h16.596l-2.747-2.748a1 1 0 010-1.414zM6.656 9.293a1 1 0 00-1.414 0L.788 13.747v1.415l4.454 4.454a1 1 0 001.414-1.414L3.91 15.454h16.596a1 1 0 100-2H3.909l2.747-2.747a1 1 0 000-1.414z"/></svg><svg viewBox="0 0 32 32" id="moon" xmlns="http://www.w3.org/2000/svg"><path fill-rule="evenodd" clip-rule="evenodd" d="M15.792 3.51c.194.344.168.77-.067 1.088a8.35 8.35 0 0011.677 11.677 1.002 1.002 0 011.594.898 13.024 13.024 0 11-14.17-14.169c.394-.036.772.162.966.506zm-2.828 1.877a11.021 11.021 0 1013.65 13.649 10.354 10.354 0 01-13.65-13.65z"/></svg><svg viewBox="0 0 32 32" id="sun" xmlns="http://www.w3.org/2000/svg"><path fill-rule="evenodd" clip-rule="evenodd" d="M16 10.575a5.426 5.426 0 100 10.85 5.426 5.426 0 000-10.85zM8.66 16a7.34 7.34 0 1114.68 0 7.34 7.34 0 01-14.68 0zM16 1c.529 0 .957.429.957.957v2.554a.957.957 0 11-1.914 0V1.957c0-.528.428-.957.957-.957zM16 26.532c.529 0 .957.429.957.957v2.554a.957.957 0 01-1.914 0v-2.554c0-.528.428-.957.957-.957zM5.391 5.391a.957.957 0 011.354 0l1.813 1.813a.957.957 0 11-1.354 1.354L5.39 6.745a.957.957 0 010-1.354zM23.442 23.442a.958.958 0 011.354 0l1.813 1.813a.957.957 0 11-1.354 1.354l-1.813-1.813a.958.958 0 010-1.354zM1 16c0-.529.429-.957.957-.957h2.554a.957.957 0 110 1.914H1.957A.957.957 0 011 16zM26.532 16c0-.529.429-.957.957-.957h2.554a.957.957 0 010 1.914h-2.554a.957.957 0 01-.957-.957zM8.558 23.442a.958.958 0 010 1.354L6.745 26.61a.957.957 0 01-1.354-1.354l1.813-1.813a.957.957 0 011.354 0zM26.609 5.391a.957.957 0 010 1.354l-1.813 1.813a.958.958 0 01-1.354-1.354l1.813-1.813a.957.957 0 011.354 0z"/></svg></svg>