<svg width="32" height="32" viewBox="0 0 32 32" xmlns="http://www.w3.org/2000/svg"><path fill-rule="evenodd" clip-rule="evenodd" d="M15.792 3.51004C15.9859 3.8541 15.9596 4.27996 15.7248 4.59755C14.5361 6.20578 13.9641 8.18726 14.1128 10.1816C14.2615 12.1759 15.1211 14.0506 16.5352 15.4648C17.9494 16.8789 19.8241 17.7385 21.8184 17.8872C23.8127 18.0359 25.7942 17.4639 27.4024 16.2752C27.72 16.0404 28.1459 16.0141 28.49 16.208C28.834 16.4019 29.0321 16.7799 28.9957 17.1731C28.7681 19.6367 27.8435 21.9845 26.3302 23.9417C24.8169 25.899 22.7775 27.3848 20.4506 28.2253C18.1237 29.0658 15.6055 29.2262 13.1907 28.6878C10.776 28.1494 8.56451 26.9343 6.81508 25.1849C5.06566 23.4355 3.85064 21.224 3.31221 18.8093C2.77378 16.3945 2.93419 13.8763 3.77469 11.5494C4.61519 9.22251 6.101 7.18309 8.05828 5.6698C10.0155 4.1565 12.3633 3.23193 14.8269 3.00427C15.2201 2.96793 15.5981 3.16598 15.792 3.51004ZM12.9644 5.38654C11.6368 5.77037 10.3871 6.40225 9.284 7.25513C7.62785 8.53561 6.37062 10.2613 5.65943 12.2302C4.94824 14.1991 4.8125 16.3299 5.2681 18.3731C5.7237 20.4164 6.75179 22.2876 8.23207 23.7679C9.71235 25.2482 11.5836 26.2763 13.6269 26.7319C15.6701 27.1875 17.8009 27.0518 19.7698 26.3406C21.7387 25.6294 23.4644 24.3722 24.7449 22.716C25.5977 21.6129 26.2296 20.3632 26.6135 19.0356C25.0705 19.7153 23.3737 20.0127 21.6694 19.8856C19.1964 19.7012 16.8718 18.6353 15.1182 16.8818C13.3647 15.1282 12.2988 12.8036 12.1144 10.3306C11.9873 8.62625 12.2847 6.92946 12.9644 5.38654Z"/></svg>