<svg width="32" height="32" viewBox="0 0 32 32" xmlns="http://www.w3.org/2000/svg"><path fill-rule="evenodd" clip-rule="evenodd" d="M16 10.5745C13.0036 10.5745 10.5745 13.0036 10.5745 16C10.5745 18.9964 13.0036 21.4255 16 21.4255C18.9964 21.4255 21.4255 18.9964 21.4255 16C21.4255 13.0036 18.9964 10.5745 16 10.5745ZM8.65957 16C8.65957 11.946 11.946 8.65957 16 8.65957C20.054 8.65957 23.3404 11.946 23.3404 16C23.3404 20.054 20.054 23.3404 16 23.3404C11.946 23.3404 8.65957 20.054 8.65957 16Z"/><path fill-rule="evenodd" clip-rule="evenodd" d="M16 1C16.5288 1 16.9574 1.42866 16.9574 1.95745V4.51064C16.9574 5.03942 16.5288 5.46809 16 5.46809C15.4712 5.46809 15.0426 5.03942 15.0426 4.51064V1.95745C15.0426 1.42866 15.4712 1 16 1Z"/><path fill-rule="evenodd" clip-rule="evenodd" d="M16 26.5319C16.5288 26.5319 16.9574 26.9606 16.9574 27.4894V30.0426C16.9574 30.5713 16.5288 31 16 31C15.4712 31 15.0426 30.5713 15.0426 30.0426V27.4894C15.0426 26.9606 15.4712 26.5319 16 26.5319Z"/><path fill-rule="evenodd" clip-rule="evenodd" d="M5.39107 5.39107C5.76498 5.01716 6.3712 5.01716 6.7451 5.39107L8.55787 7.20384C8.93178 7.57774 8.93178 8.18396 8.55787 8.55787C8.18396 8.93178 7.57774 8.93178 7.20384 8.55787L5.39107 6.7451C5.01716 6.3712 5.01716 5.76498 5.39107 5.39107Z"/><path fill-rule="evenodd" clip-rule="evenodd" d="M23.4421 23.4421C23.816 23.0682 24.4223 23.0682 24.7962 23.4421L26.6089 25.2549C26.9828 25.6288 26.9828 26.235 26.6089 26.6089C26.235 26.9828 25.6288 26.9828 25.2549 26.6089L23.4421 24.7962C23.0682 24.4223 23.0682 23.816 23.4421 23.4421Z"/><path fill-rule="evenodd" clip-rule="evenodd" d="M1 16C1 15.4712 1.42866 15.0426 1.95745 15.0426H4.51064C5.03942 15.0426 5.46809 15.4712 5.46809 16C5.46809 16.5288 5.03942 16.9574 4.51064 16.9574H1.95745C1.42866 16.9574 1 16.5288 1 16Z"/><path fill-rule="evenodd" clip-rule="evenodd" d="M26.5319 16C26.5319 15.4712 26.9606 15.0426 27.4894 15.0426H30.0426C30.5713 15.0426 31 15.4712 31 16C31 16.5288 30.5713 16.9574 30.0426 16.9574H27.4894C26.9606 16.9574 26.5319 16.5288 26.5319 16Z"/><path fill-rule="evenodd" clip-rule="evenodd" d="M8.55787 23.4421C8.93178 23.816 8.93178 24.4223 8.55787 24.7962L6.7451 26.6089C6.3712 26.9828 5.76498 26.9828 5.39107 26.6089C5.01716 26.235 5.01716 25.6288 5.39107 25.2549L7.20384 23.4421C7.57774 23.0682 8.18396 23.0682 8.55787 23.4421Z"/><path fill-rule="evenodd" clip-rule="evenodd" d="M26.6089 5.39107C26.9828 5.76498 26.9828 6.3712 26.6089 6.7451L24.7962 8.55787C24.4223 8.93178 23.816 8.93178 23.4421 8.55787C23.0682 8.18396 23.0682 7.57774 23.4421 7.20384L25.2549 5.39107C25.6288 5.01716 26.235 5.01716 26.6089 5.39107Z"/></svg>