<svg width="22" height="20" viewBox="0 0 22 20" xmlns="http://www.w3.org/2000/svg"><path fill-rule="evenodd" clip-rule="evenodd" d="M15.3436 0.384202C15.7342 -0.00632247 16.3673 -0.00632247 16.7578 0.384202L21.2122 4.83858V6.2528L16.7578 10.7072C16.3673 11.0977 15.7342 11.0977 15.3436 10.7072C14.9531 10.3167 14.9531 9.68349 15.3436 9.29296L18.0909 6.54569H1.49512C0.942832 6.54569 0.495117 6.09797 0.495117 5.54569C0.495117 4.9934 0.942832 4.54569 1.49512 4.54569H18.0909L15.3436 1.79842C14.9531 1.40789 14.9531 0.774726 15.3436 0.384202Z"/><path fill-rule="evenodd" clip-rule="evenodd" d="M6.65637 9.29289C6.26585 8.90237 5.63268 8.90237 5.24216 9.29289L0.787775 13.7473V15.1615L5.24216 19.6159C5.63268 20.0064 6.26585 20.0064 6.65637 19.6159C7.0469 19.2253 7.0469 18.5922 6.65637 18.2017L3.9091 15.4544H20.5049C21.0572 15.4544 21.5049 15.0067 21.5049 14.4544C21.5049 13.9021 21.0572 13.4544 20.5049 13.4544H3.9091L6.65637 10.7071C7.0469 10.3166 7.0469 9.68342 6.65637 9.29289Z"/></svg>