<svg width="96" height="96" viewBox="0 0 96 96" fill="none" xmlns="http://www.w3.org/2000/svg">
<g clip-path="url(#clip0_5_781)">
<path d="M96 48C96 21.4903 74.5097 0 48 0C21.4903 0 0 21.4903 0 48C0 74.5097 21.4903 96 48 96C74.5097 96 96 74.5097 96 48Z" fill="url(#paint0_linear_5_781)"/>
<path d="M61.6983 55.5816C61.6983 48.4318 57.4083 45.9804 48.8283 44.9591C42.6998 44.1418 41.474 42.5077 41.474 39.6474C41.474 36.7871 43.5171 34.949 47.6026 34.949C51.2797 34.949 53.3228 36.1747 54.344 39.239C54.5485 39.8518 55.1613 40.2602 55.7742 40.2602H59.0424C59.8597 40.2602 60.4726 39.6474 60.4726 38.8306V38.6261C59.6553 34.1317 55.9781 30.659 51.2797 30.2506V25.3477C51.2797 24.5304 50.6669 23.9176 49.6456 23.7131H46.5813C45.764 23.7131 45.1512 24.326 44.9467 25.3477V30.0461C38.8182 30.8634 34.9371 34.949 34.9371 40.0563C34.9371 46.7977 39.0226 49.4531 47.6026 50.4748C53.3228 51.4961 55.1613 52.7218 55.1613 55.9905C55.1613 59.2593 52.301 61.5062 48.4199 61.5062C43.1082 61.5062 41.2696 59.2588 40.6567 56.1945C40.4528 55.3777 39.8399 54.9688 39.2271 54.9688H35.7539C34.9371 54.9688 34.3242 55.5816 34.3242 56.3989V56.6034C35.141 61.7102 38.4098 65.3873 45.1512 66.4091V71.3119C45.1512 72.1287 45.764 72.7416 46.7853 72.946H49.8496C50.6669 72.946 51.2797 72.3332 51.4842 71.3119V66.4091C57.6127 65.3873 61.6983 61.0973 61.6983 55.5816Z" fill="white"/>
<path fill-rule="evenodd" clip-rule="evenodd" d="M19.615 37.809C13.6904 53.5393 21.862 71.3121 37.7962 77.0318C38.4091 77.4407 39.022 78.2575 39.022 78.8703V81.7307C39.022 82.1391 39.022 82.3435 38.8175 82.5475C38.6136 83.3648 37.7962 83.7732 36.9789 83.3648C25.5391 79.6876 16.7547 70.9032 13.0776 59.4634C6.94906 40.0565 17.572 19.4233 36.9789 13.2948C37.1834 13.0908 37.5918 13.0908 37.7962 13.0908C38.6136 13.2948 39.022 13.9076 39.022 14.7249V17.5848C39.022 18.6065 38.6136 19.2194 37.7962 19.6278C29.4207 22.6921 22.6793 29.229 19.615 37.809ZM57.6068 14.1118C57.8107 13.2945 58.628 12.8861 59.4453 13.2945C70.6807 16.9716 79.6696 25.756 83.3467 37.4003C89.4752 56.8072 78.8523 77.4404 59.4453 83.5689C59.2409 83.7729 58.8325 83.7729 58.628 83.7729C57.8107 83.5689 57.4023 82.9561 57.4023 82.1388V79.2789C57.4023 78.2572 57.8107 77.6443 58.628 77.2359C67.0036 74.1716 73.745 67.6347 76.8092 59.0547C82.7338 43.3244 74.5623 25.5516 58.628 19.8319C58.0152 19.423 57.4023 18.6062 57.4023 17.7889V14.9291C57.4023 14.5202 57.4023 14.3162 57.6068 14.1118Z" fill="white"/>
</g>
<defs>
<linearGradient id="paint0_linear_5_781" x1="53.2363" y1="39.2727" x2="-38.4" y2="175.418" gradientUnits="userSpaceOnUse">
<stop stop-color="#2775CA"/>
<stop offset="1" stop-color="#00BBF9"/>
</linearGradient>
<clipPath id="clip0_5_781">
<rect width="96" height="96" fill="white"/>
</clipPath>
</defs>
</svg>
