<svg width="96" height="96" viewBox="0 0 96 96" fill="none" xmlns="http://www.w3.org/2000/svg">
<g clip-path="url(#clip0_5_781)">
<path d="M96 48.01C96 21.5003 74.5097 0.01 48 0.01C21.4903 0.01 0 21.5003 0 48.01C0 74.5197 21.4903 96.01 48 96.01C74.5097 96.01 96 74.5197 96 48.01Z" fill="url(#paint0_linear_5_781)"/>
<path d="M71.1213 41.1006C72.174 34.0524 66.806 30.2652 59.4604 27.7366L61.84 18.1847L56.029 16.737L53.7129 26.034C52.1872 25.6539 50.6172 25.2934 49.0586 24.94L51.39 15.5814L45.579 14.1337L43.1974 23.6764C41.9328 23.3875 40.6888 23.1038 39.4838 22.8037L39.491 22.7749L31.4767 20.774L29.9299 26.9829C29.9299 26.9829 34.2439 27.9703 34.1504 28.03C36.5069 28.617 36.9318 30.1727 36.8598 31.4081L34.1494 42.2882C34.3139 42.3291 34.5216 42.3896 34.7519 42.4819L34.1392 42.3293L30.3378 57.571C30.0506 58.2855 29.3207 59.357 27.6746 58.9513C27.7323 59.0355 23.4511 57.8991 23.4511 57.8991L20.5664 64.5521L28.1334 66.4372C29.5399 66.7876 30.9197 67.1575 32.2748 67.5038L29.8727 77.1636L35.6796 78.6103L38.0602 69.0543C39.6435 69.4836 41.1826 69.8802 42.6919 70.2562L40.3185 79.7659L46.1295 81.2135L48.5306 71.5753C58.4413 73.4503 65.9022 72.6931 69.0358 63.7265C71.5633 56.5085 68.9108 52.341 63.6948 49.6267C67.4974 48.7573 70.36 46.2606 71.1213 41.1006ZM57.8424 59.724C56.0447 66.9403 43.8904 63.0434 39.9465 62.0609L43.1353 49.2606C47.0772 50.2513 59.717 52.1992 57.8424 59.724ZM59.6343 40.9946C57.9984 47.5613 47.8758 44.2229 44.5929 43.4094L47.4836 31.8057C50.7696 32.6243 61.344 34.1493 59.6343 40.9946Z" fill="white"/>
<path d="M34.2228 42.0354L35.0865 42.2505L34.9277 42.8879L34.064 42.6727L34.2228 42.0354Z" fill="white"/>
</g>
<defs>
<linearGradient id="paint0_linear_5_781" x1="-16.5818" y1="163.21" x2="78.5454" y2="0.0100069" gradientUnits="userSpaceOnUse">
<stop stop-color="#FF930F"/>
<stop offset="1" stop-color="#FBC411"/>
</linearGradient>
<clipPath id="clip0_5_781">
<rect width="96" height="96" fill="white"/>
</clipPath>
</defs>
</svg>
