<svg width="96" height="96" viewBox="0 0 96 96" fill="none" xmlns="http://www.w3.org/2000/svg">
<g clip-path="url(#clip0_5_781)">
<path d="M96 48C96 21.4903 74.5097 0 48 0C21.4903 0 0 21.4903 0 48C0 74.5097 21.4903 96 48 96C74.5097 96 96 74.5097 96 48Z" fill="url(#paint0_linear_5_781)"/>
<path fill-rule="evenodd" clip-rule="evenodd" d="M75.0276 39.4775C73.8849 38.4224 72.5601 37.1361 71.1796 35.7957C69.2405 33.913 67.1916 31.9236 65.3832 30.3186L65.2001 30.1904C64.8953 29.9456 64.5517 29.7537 64.1834 29.6225L62.7875 29.3621C53.1574 27.5652 21.9436 21.741 21.3015 21.8191C21.1116 21.8457 20.93 21.9146 20.7703 22.0206L20.5963 22.158C20.382 22.3756 20.2192 22.6385 20.12 22.9274L20.0742 23.0464V23.6967V23.7975C22.1934 29.6984 27.6984 42.8766 32.7814 55.0446C37.0788 65.3319 41.0747 74.8975 42.4677 78.7325L42.4682 78.7341C42.6515 79.3023 42.9995 80.3811 43.6492 80.436H43.7957C44.1438 80.436 45.6275 78.476 45.6275 78.476C45.6275 78.476 72.1517 46.31 74.8352 42.8846C75.1826 42.4626 75.4893 42.0088 75.7511 41.5291C75.8871 40.7656 75.6124 39.9868 75.0276 39.4775ZM52.4336 43.2233L63.754 33.8354L70.3942 39.9536L52.4336 43.2233ZM28.5469 26.6367L48.037 42.6098L60.0809 32.4526L28.5469 26.6367ZM49.7952 46.7954L69.7433 43.5806L46.9376 71.0573L49.7952 46.7954ZM46.4052 45.6319L25.8984 28.23L43.4377 71.0753L46.4052 45.6319Z" fill="white"/>
</g>
<defs>
<linearGradient id="paint0_linear_5_781" x1="62.8363" y1="13.9636" x2="-9.44752e-07" y2="143.127" gradientUnits="userSpaceOnUse">
<stop stop-color="#FC070C"/>
<stop offset="1" stop-color="#F45C43"/>
</linearGradient>
<clipPath id="clip0_5_781">
<rect width="96" height="96" fill="white"/>
</clipPath>
</defs>
</svg>
