<svg width="96" height="96" viewBox="0 0 96 96" fill="none" xmlns="http://www.w3.org/2000/svg">
<g clip-path="url(#clip0_10_58)">
<path d="M96 48C96 21.4903 74.5097 0 48 0C21.4903 0 0 21.4903 0 48C0 74.5097 21.4903 96 48 96C74.5097 96 96 74.5097 96 48Z" fill="url(#paint0_linear_10_58)"/>
<path fill-rule="evenodd" clip-rule="evenodd" d="M12.9664 41.9199C12.8053 41.9199 12.7656 41.839 12.8458 41.719L13.6897 40.6337C13.7693 40.5131 13.9708 40.4328 14.1313 40.4328H28.4759C28.637 40.4328 28.6768 40.5535 28.5966 40.6742L27.9137 41.719C27.8335 41.839 27.6326 41.9597 27.5119 41.9597L12.9664 41.9199ZM6.89897 45.6159C6.73853 45.6159 6.69809 45.5364 6.77831 45.415L7.62226 44.3304C7.70248 44.2098 7.90336 44.1295 8.06446 44.1295H26.3862C26.5467 44.1295 26.6275 44.2502 26.5871 44.3709L26.2656 45.3348C26.2258 45.4959 26.0647 45.5761 25.9042 45.5761L6.89897 45.6159ZM16.622 49.3126C16.4616 49.3126 16.4218 49.192 16.502 49.0713L17.0642 48.0669C17.1451 47.9462 17.3056 47.8263 17.4667 47.8263H25.5018C25.6629 47.8263 25.7431 47.9463 25.7431 48.1074L25.6636 49.0713C25.6636 49.2324 25.5025 49.3531 25.3818 49.3531L16.622 49.3126ZM58.3293 41.1966C55.7974 41.8397 54.0698 42.3216 51.579 42.964C50.9757 43.1252 50.9359 43.1649 50.4135 42.5623C49.8109 41.8794 49.3686 41.4372 48.5254 41.0355C45.9935 39.7904 43.5425 40.1517 41.2526 41.6388C38.5205 43.4062 37.1144 46.0177 37.1541 49.2722C37.1939 52.4869 39.4043 55.1388 42.5785 55.581C45.3106 55.9423 47.6012 54.9777 49.4091 52.9291C49.7704 52.4869 50.0919 52.0049 50.4937 51.4421H42.739C41.8957 51.4421 41.6948 50.9197 41.9759 50.2368C42.4983 48.9911 43.4623 46.9021 44.0245 45.8572C44.1458 45.6159 44.4269 45.2142 45.0295 45.2142H59.6546C59.575 46.2994 59.575 47.3841 59.4139 48.4693C58.9717 51.3619 57.8871 54.0137 56.119 56.3441C53.2258 60.1614 49.4495 62.5315 44.6675 63.1746C40.7302 63.697 37.0739 62.9333 33.8599 60.5227C30.8864 58.2726 29.1992 55.2992 28.757 51.6032C28.2346 47.2236 29.5201 43.2856 32.1719 39.8302C35.0247 36.0937 38.8016 33.723 43.4225 32.879C47.1994 32.1961 50.8152 32.6383 54.0698 34.848C56.1992 36.2542 57.726 38.1827 58.7304 40.5131C58.9717 40.875 58.8119 41.0766 58.3293 41.1966Z" fill="white"/>
<path d="M71.6287 63.416C67.9724 63.3351 64.6371 62.291 61.8247 59.8798C59.454 57.8312 57.9676 55.2191 57.4856 52.125C56.7623 47.585 58.0074 43.5668 60.7401 39.9914C63.6731 36.1336 67.2087 34.1248 71.9907 33.2808C76.0885 32.5582 79.9463 32.96 83.4415 35.3301C86.6157 37.5 88.5841 40.4329 89.1065 44.2901C89.7894 49.7145 88.2228 54.1345 84.4856 57.9114C81.8338 60.603 78.5793 62.291 74.8428 63.054C73.7582 63.2549 72.6729 63.2954 71.6287 63.416ZM81.1913 47.1833C81.1516 46.6609 81.1516 46.2591 81.0707 45.8573C80.3481 41.8795 76.6911 39.6294 72.8744 40.5138C69.1373 41.3571 66.7267 43.7279 65.843 47.5048C65.1197 50.6387 66.6465 53.8129 69.539 55.0984C71.7494 56.0631 73.959 55.9424 76.0885 54.8578C79.2628 53.2103 80.9905 50.6387 81.1913 47.1833Z" fill="white"/>
</g>
<defs>
<linearGradient id="paint0_linear_10_58" x1="10.6001" y1="4" x2="75.1001" y2="96" gradientUnits="userSpaceOnUse">
<stop stop-color="#00ACD7"/>
<stop offset="1" stop-color="#00A8D3"/>
</linearGradient>
</defs>
</svg>