<svg width="96" height="96" viewBox="0 0 96 96" fill="none" xmlns="http://www.w3.org/2000/svg">
<g clip-path="url(#clip0_10_45)">
<path d="M96 48C96 21.4903 74.5097 0 48 0C21.4903 0 0 21.4903 0 48C0 74.5097 21.4903 96 48 96C74.5097 96 96 74.5097 96 48Z" fill="url(#paint0_linear_10_45)"/>
<path d="M78.4819 26.9588L50.9212 10.9556C49.1831 9.96564 46.92 9.96564 45.1681 10.9556L17.3131 26.9588C15.5194 27.9906 14.25 29.93 14.25 32.0044V63.9681C14.25 66.0425 15.5525 67.9825 17.3462 69.02L24.7056 73.2C28.2231 74.9325 29.4662 74.9325 31.0669 74.9325C36.275 74.9325 39.25 71.7831 39.25 66.29V34.7338C39.25 34.2881 39.0181 33.625 38.5806 33.625H35.0662C34.6212 33.625 33.625 34.2881 33.625 34.7331V66.2894C33.625 68.7244 31.4225 71.1475 27.3062 69.0894L19.7019 64.7063C19.4369 64.5625 19.25 64.2731 19.25 63.9681V32.0044C19.25 31.7031 19.5969 31.4006 19.8637 31.2463L47.6287 15.2706C47.8881 15.1238 48.2694 15.1238 48.5281 15.2706L75.9544 31.2425C76.2169 31.4006 76.1244 31.6938 76.1244 32.0044V63.9681C76.1244 64.2731 76.2387 64.57 75.9794 64.7169L48.4256 80.7019C48.1894 80.8438 47.8962 80.8438 47.6375 80.7019L40.5706 76.4838C40.3575 76.36 40.1044 76.3156 39.9 76.43C37.9337 77.5444 37.5712 77.6925 35.7269 78.3319C35.2731 78.49 34.6037 78.7644 35.9831 79.5375L45.2319 85.0088C46.1149 85.5188 47.1166 85.7873 48.1362 85.7875C49.1625 85.7875 50.1675 85.5213 51.0531 85.0088L78.4812 69.02C80.275 67.975 81.125 66.0425 81.125 63.9681V32.0044C81.125 29.93 80.275 27.9956 78.4819 26.9588ZM56.6937 58.9031C49.365 58.9031 47.7506 56.8813 47.2125 53.2369C47.15 52.8444 46.8169 52.375 46.4175 52.375H42.8356C42.3925 52.375 42.0362 52.9125 42.0362 53.3538C42.0362 58.02 44.5731 63.6738 56.6944 63.6738C65.4687 63.6738 70.4994 60.2644 70.4994 54.2306C70.4994 48.2481 66.4575 46.6781 57.9481 45.5519C49.3469 44.415 48.4731 43.8406 48.4731 41.8256C48.4731 40.1644 49.2131 37.9488 55.5819 37.9488C61.2725 37.9488 63.37 39.17 64.2331 43.0056C64.3069 43.3663 64.6362 43.625 65.0081 43.625H68.6044C68.8256 43.625 69.0369 43.5356 69.1919 43.3775C69.3419 43.2075 69.4212 42.9944 69.4012 42.7656C68.8444 36.1606 64.4562 33.0825 55.5812 33.0825C47.6869 33.0825 42.9775 36.4163 42.9775 42.0044C42.9775 48.0656 47.6631 49.7406 55.2412 50.49C64.3069 51.3788 65.0119 52.7038 65.0119 54.4869C65.0119 57.5838 62.5256 58.9031 56.6937 58.9031Z" fill="white"/>
</g>
<defs>
<linearGradient id="paint0_linear_10_45" x1="0.399903" y1="4" x2="88.3999" y2="102.5" gradientUnits="userSpaceOnUse">
<stop stop-color="#83CD29"/>
<stop offset="1" stop-color="#74BE1A"/>
</linearGradient>
</defs>
</svg>
