<svg width="96" height="96" viewBox="0 0 96 96" fill="none" xmlns="http://www.w3.org/2000/svg">
<rect width="96" height="96" rx="48" fill="url(#paint0_linear_8_12)"/>
<path d="M35.51 52.7393C34.3645 53.811 33.0925 54.2533 31.6917 54.709C30.2908 55.1655 28.5081 55.0712 26.3404 55.0712H21.4276L20.066 62.9279H14.3298L19.4485 36.215H30.4794C33.7981 36.215 36.2187 37.1696 37.7406 38.9114C39.2624 40.6533 39.7197 43.1258 39.1132 46.2473C38.8625 47.5334 38.4406 48.7292 37.8451 49.7946C37.2279 50.8938 36.4397 51.8879 35.51 52.7393ZM52.2536 55.0712L54.5171 43.7418C54.7748 42.4155 54.6805 41.4303 54.2335 40.9487C53.7856 40.4663 52.8334 40.1434 51.3775 40.1434H46.8285L43.8971 55.0712H38.2057L43.3244 29.1439H49.0158L47.655 36.215H52.725C55.9156 36.215 58.1155 36.8553 59.3262 37.9678C60.5369 39.0803 60.8999 40.6046 60.4159 43.0967L58.0346 55.0712H52.2536ZM83.884 46.2889C83.6342 47.5751 83.2115 48.7504 82.6167 49.815C82.0212 50.8812 81.2434 51.8562 80.2825 52.7393C79.137 53.811 77.8642 54.2533 76.4641 54.709C75.064 55.1655 73.2798 55.0712 71.1121 55.0712H66.1993L64.8385 62.9279H59.1023L64.2202 36.215H75.2518C78.5705 36.215 80.9912 37.1696 82.5122 38.9114C84.0325 40.6533 84.4906 43.1682 83.884 46.2889ZM73.0779 40.1434H69.1487L67.0062 51.1428H70.4961C72.8076 51.1428 74.5314 50.915 75.6627 50.0429C76.7957 49.1723 77.5586 47.821 77.9553 45.7837C78.3356 43.8266 78.1627 42.3 77.4368 41.4955C76.71 40.691 75.2573 40.1434 73.0779 40.1434ZM28.3062 40.1434H24.3763L22.2337 51.1428H25.7229C28.0351 51.1428 29.7581 50.915 30.8903 50.0429C32.0224 49.1723 32.7861 47.821 33.1821 45.7837C33.5624 43.8266 33.3895 42.3 32.6635 41.4955C31.9376 40.691 30.4857 40.1434 28.3062 40.1434Z" fill="white"/>
<defs>
<linearGradient id="paint0_linear_8_12" x1="9.5" y1="4" x2="78" y2="100" gradientUnits="userSpaceOnUse">
<stop stop-color="#6181B6"/>
<stop offset="1" stop-color="#5979AE"/>
</linearGradient>
</defs>
</svg>
