<svg width="96" height="96" viewBox="0 0 96 96" fill="none" xmlns="http://www.w3.org/2000/svg">
<g clip-path="url(#clip0_10_54)">
<path d="M96 47.69C96 21.1803 74.5097 -0.309998 48 -0.309998C21.4903 -0.309998 0 21.1803 0 47.69C0 74.1997 21.4903 95.69 48 95.69C74.5097 95.69 96 74.1997 96 47.69Z" fill="url(#paint0_linear_10_54)"/>
<path d="M47.6461 17.609C45.192 17.6207 42.8496 17.8293 40.7873 18.1944C34.7132 19.2674 33.6112 21.5133 33.6112 25.6559V31.1261H47.964V32.9495H28.2241C24.053 32.9495 20.4004 35.4564 19.2577 40.2273C17.9394 45.694 17.8813 49.106 19.2577 54.8145C20.2778 59.064 22.7144 62.0912 26.8861 62.0912H31.8215V55.5335C31.8215 50.7957 35.9199 46.6171 40.7879 46.6171H55.1245C59.1154 46.6171 62.3006 43.3307 62.3006 39.3235V25.6565C62.3006 21.7662 59.0189 18.8442 55.1245 18.1949C52.6577 17.7846 50.0996 17.598 47.6461 17.609ZM39.884 22.0085C41.3662 22.0085 42.5776 23.2391 42.5776 24.7526C42.5776 26.2598 41.3668 27.4787 39.884 27.4787C38.396 27.4787 37.1911 26.2598 37.1911 24.7526C37.1905 23.2391 38.396 22.0085 39.884 22.0085Z" fill="#386F9F"/>
<path d="M64.0902 32.9495V39.3235C64.0902 44.2642 59.9006 48.423 55.1238 48.423H40.7872C36.8603 48.423 33.6111 51.7844 33.6111 55.7172V69.3853C33.6111 73.2745 36.9928 75.5629 40.7872 76.6783C45.3303 78.0135 49.6874 78.2553 55.1238 76.6783C58.7369 75.6315 62.3 73.5262 62.3 69.3853V63.9146H47.964V62.0906H69.4773C73.6484 62.0906 75.2038 59.1814 76.6546 54.8139C78.1531 50.3179 78.0886 45.994 76.6546 40.2268C75.6235 36.0737 73.6548 32.9489 69.4773 32.9489L64.0902 32.9495ZM56.0265 67.5614C57.5151 67.5614 58.72 68.7803 58.72 70.2886C58.72 71.801 57.5145 73.0315 56.0265 73.0315C54.5443 73.0315 53.3336 71.801 53.3336 70.2886C53.3336 68.7803 54.5443 67.5614 56.0265 67.5614Z" fill="#FFCF46"/>
</g>
<defs>
<linearGradient id="paint0_linear_10_54" x1="-0.200195" y1="1.19" x2="80.2998" y2="103.19" gradientUnits="userSpaceOnUse">
<stop stop-color="#242429"/>
<stop offset="1" stop-color="#18181D"/>
</linearGradient>
</defs>
</svg>
